PathFileType	4	(X/Y/Z)	C:\Users\WrightLab\Desktop\Jo\P1.2Trial3.trc
DataRate	CameraRate	NumFrames	NumMarkers	Units	OrigDataRate	OrigDataStartFrame	OrigNumFrames
100.00	100.00	       58	19	mm	100.00	1	       658
Frame#	Time	Headset_Front			Headset_Back			Headset_Left			Headset_Right			Left_Shoulder			Right_Shoulder			Sternum			C7			Left Elbow			Right Elbow			Left Wrist			Right Wrist			Left ASIS			Right ASIS			S2			Left Knee			Right Knee			Left Ankle			Right Ankle			
		X1	Y1	Z1	X2	Y2	Z2	X3	Y3	Z3	X4	Y4	Z4	X5	Y5	Z5	X6	Y6	Z6	X7	Y7	Z7	X8	Y8	Z8	X9	Y9	Z9	X10	Y10	Z10	X11	Y11	Z11	X12	Y12	Z12	X13	Y13	Z13	X14	Y14	Z14	X15	Y15	Z15	X16	Y16	Z16	X17	Y17	Z17	X18	Y18	Z18	X19	Y19	Z19	

1	0.000																															53.34282	728.76764	-1488.78198				-89.04353	861.86096	-1460.16455							-76.19159	406.55475	-1473.61414										
2	0.010																															53.54683	728.96130	-1488.09607				-89.02971	861.89740	-1460.07288							-76.21828	406.31506	-1474.32520										
3	0.020																															53.97446	728.96631	-1487.62915				-89.01560	861.93451	-1459.97925							-75.66125	406.23306	-1474.06421										
4	0.030																															54.21676	729.07391	-1487.08423				-88.99792	861.96307	-1459.85986							-75.82935	406.13199	-1474.45532										
5	0.040																															54.40958	729.19562	-1486.62488				-88.29535	861.56274	-1462.02173							-75.67246	406.03613	-1474.54358										
6	0.050																															54.65470	729.29352	-1485.99316				-88.25974	861.65283	-1461.78491							-75.64433	406.04263	-1474.53528										
7	0.060																															54.84192	729.42926	-1485.47058				-88.19197	861.76923	-1461.32751							-75.09806	406.10516	-1475.05542										
8	0.070																															55.10971	729.32013	-1485.50476				-87.84883	862.11151	-1462.04248							-75.02148	405.98868	-1475.22485										
9	0.080																															55.20373	729.48108	-1485.06848				-87.82597	862.13391	-1461.88586							-74.79334	405.80646	-1475.35974										
10	0.090																															55.38101	729.45276	-1484.92444				-87.30894	861.42188	-1462.72302							-74.61321	405.14413	-1475.43628										
11	0.100																															56.72050	729.61627	-1486.58972				-87.36977	860.53888	-1461.35242							-74.51117	405.03320	-1475.50842										
12	0.110																															56.88069	729.66730	-1486.22119				-87.25999	860.72864	-1460.61121							-74.47208	405.08887	-1475.19812										
13	0.120																															57.63685	729.76080	-1487.38269				-87.14892	860.92224	-1459.86133							-74.51133	405.01428	-1475.48474										
14	0.130																															58.15746	729.51111	-1487.28162				-86.94947	861.26294	-1458.51416							-74.53149	405.00784	-1475.48853										
15	0.140																															58.28369	729.40308	-1487.41736				-86.87381	861.34454	-1457.99756							-74.55042	404.97791	-1475.46216										
16	0.150																															58.31462	729.34351	-1487.62341				-86.61201	861.80463	-1456.23059							-74.55367	405.01968	-1475.51624										
17	0.160																															58.33621	729.35345	-1487.61084				-86.45487	862.04895	-1455.16638							-74.55872	404.96771	-1475.45422										
18	0.170																															58.50171	729.19330	-1487.58228				-85.76772	861.38770	-1455.79431							-74.55807	404.86447	-1475.79822										
19	0.180																															58.58342	729.07300	-1487.84583				-85.56757	860.92224	-1454.74304							-74.53254	404.71078	-1476.09717										
20	0.190																															58.56925	728.98010	-1487.98035				-85.73322	860.83643	-1452.82190							-74.48950	404.66064	-1476.19067										
21	0.200																															58.54615	728.96411	-1487.98181				-85.54749	861.12592	-1451.56409							-74.37547	404.15884	-1476.19043										
22	0.210																															58.55978	728.66797	-1488.67261				-85.39392	861.36029	-1450.52356							-74.32293	404.01846	-1476.42993										
23	0.220																															58.65819	728.41461	-1489.15381				-85.28421	861.51788	-1449.77905							-74.07355	403.76773	-1476.69897										
24	0.230																															58.66600	728.18622	-1489.60767				-85.16165	861.71368	-1448.94946							-74.04665	403.66299	-1476.97876										
25	0.240																															58.66418	728.11060	-1489.71033				-85.06570	861.86505	-1448.29980							-73.95632	403.57101	-1477.04749										
26	0.250																															59.49473	727.52820	-1490.85986				-84.93726	862.06665	-1447.42993							-73.94032	403.58374	-1477.05408										
27	0.260																															59.58113	727.38318	-1491.04736				-84.86476	862.16034	-1446.93677							-73.42527	403.79153	-1478.08838										
28	0.270																															59.53139	727.14294	-1491.73206				-84.79835	862.26532	-1446.48706							-73.31641	403.71475	-1478.16699										
29	0.280																															59.53933	726.97144	-1492.07813				-84.42345	861.39996	-1447.45764							-73.22095	403.71780	-1478.06592										
30	0.290																															59.46804	726.88782	-1492.26001				-84.41119	861.37805	-1447.37000							-73.10853	403.69598	-1478.01819										
31	0.300																															59.49166	726.76410	-1492.31445				-83.87637	860.62756	-1449.15466							-73.10356	403.66470	-1477.97632										
32	0.310																															59.56461	726.64673	-1492.61487				-83.82507	860.69128	-1448.80505							-73.09365	403.65280	-1477.95581										
33	0.320																															59.65621	726.56512	-1492.66785				-83.14767	860.10913	-1451.04651							-73.08363	403.64075	-1477.93494										
34	0.330																															59.65102	726.44550	-1492.75281				-83.13615	860.10529	-1450.96606							-73.07522	403.61902	-1477.90295										
35	0.340																															59.68384	726.43304	-1492.67261				-83.09284	860.15100	-1450.66968							-72.54736	403.48035	-1478.24609										
36	0.350																															59.80864	726.44257	-1492.50818				-82.46266	859.26965	-1452.75195							-72.51875	403.45190	-1478.19409										
37	0.360																															59.78797	726.46472	-1492.24133				-81.51202	857.95740	-1455.73315							-72.51376	403.43365	-1478.16833										
38	0.370																															59.98626	726.48138	-1491.91418				-81.46873	857.90161	-1455.42554							-72.41832	403.38095	-1478.19067										
39	0.380																															60.17244	726.34833	-1491.73047				-81.42539	857.90356	-1455.12366							-72.27079	403.47244	-1477.66553										
40	0.390																															60.35430	726.41803	-1491.31494				-81.39412	857.81488	-1454.89575							-72.17633	403.51251	-1477.30835										
41	0.400																															60.41541	726.35815	-1491.08264				-81.35490	857.74060	-1454.61389							-72.14188	403.49515	-1477.26660										
42	0.410																															60.81919	725.89825	-1490.88855				-81.29659	857.74542	-1454.20728							-72.00194	403.38708	-1477.26099										
43	0.420																															60.56175	725.50909	-1489.34094				-81.26550	857.71906	-1453.98706							-71.34171	403.46033	-1478.02222										
44	0.430																															60.65646	725.50616	-1489.10193				-81.22517	857.69025	-1453.70190							-71.34022	403.42819	-1477.98108										
45	0.440																															60.80386	725.49414	-1488.86438				-81.15208	857.71375	-1453.19373							-71.33382	402.95023	-1477.48987										
46	0.450																															60.94790	725.52911	-1488.44910				-81.11993	857.65057	-1452.96118							-71.20655	402.90744	-1477.36047										
47	0.460																															61.12845	725.60614	-1487.70923				-81.04713	857.70709	-1452.45862							-70.96346	402.91580	-1476.95044										
48	0.470																															61.26899	725.51459	-1487.66980				-80.94254	857.80878	-1451.73889							-70.81284	403.02887	-1476.45081										
49	0.480																															61.44199	725.53210	-1487.24304				-80.37192	857.15918	-1452.20691							-70.33341	402.72781	-1476.44031										
50	0.490																															61.45781	725.54468	-1486.93738				-80.20901	857.40887	-1451.09631							-70.30003	402.71271	-1476.40186										
51	0.500																															61.65185	725.52777	-1486.53589				-80.24132	856.50635	-1449.52051							-70.28790	402.70380	-1476.38354										
52	0.510																															61.83027	725.48669	-1486.14246				-80.07413	856.76550	-1448.38171							-70.24039	402.67456	-1476.31909										
53	0.520																															61.97516	725.08960	-1485.13672				-79.91444	856.98132	-1447.29028							-69.97894	402.70523	-1475.87195										
54	0.530																															61.71240	724.63849	-1483.77478				-79.76556	857.22363	-1446.27734							-69.92899	402.75485	-1475.53528										
55	0.540																															61.84548	724.62256	-1483.33545				-79.57484	857.47772	-1444.97327							-69.89868	402.75281	-1475.51477										
56	0.550																															61.73825	724.15405	-1481.73169				-79.40715	857.67908	-1443.82385							-69.52840	402.40720	-1475.14771										
57	0.560																															61.74129	724.09601	-1481.59607				-78.76214	856.84283	-1444.72168							-69.43137	402.28973	-1475.38086										
58	0.570																															61.80719	724.03052	-1481.36841				-78.53091	856.36041	-1443.44739							-69.28017	402.29947	-1475.05872										
